<svg xmlns="http://www.w3.org/2000/svg" height="100" viewBox="0 0 512 512" width="100" stroke-linejoin="round"><path d="M448 512l-384 0c-35.3 0-64-28.7-64-64l0-384c0-35.3 28.7-64 64-64l384 0c35.3 0 64 28.7 64 64l0 384c0 35.3-28.7 64-64 64Z" fill="#1da1f2"/><path d="M196.6 386c120.7 0 186.8-100.1 186.8-186.8 0-2.8 0-5.6-0.1-8.4 12.8-9.2 23.9-20.9 32.8-34 -11.8 5.2-24.4 8.7-37.8 10.4 13.6-8.1 23.9-21 28.9-36.4 -12.7 7.6-26.8 12.9-41.7 15.9 -12-12.8-29.1-20.7-47.9-20.7 -36.2 0-65.7 29.4-65.7 65.7 0 5.1 0.6 10.1 1.7 15 -54.5-2.7-102.9-28.9-135.3-68.6 -5.6 9.7-8.8 21-8.8 33 0 22.8 11.6 42.9 29.2 54.7 -10.8-0.4-20.9-3.3-29.7-8.2l0 0.9c0 31.7 22.7 58.4 52.6 64.4 -5.5 1.5-11.3 2.3-17.3 2.3 -4.2 0-8.3-0.4-12.3-1.2 8.3 26.1 32.6 45.1 61.3 45.6 -22.5 17.7-50.8 28.2-81.5 28.2 -5.2 0-10.5-0.3-15.6-0.9 28.9 18.4 63.5 29.3 100.5 29.3" fill="#fff"/></svg>
 